<?xml version="1.0" encoding="UTF-8"?>
<svg width="200px" height="200px" viewBox="0 0 200 200" version="1.1" xmlns="http://www.w3.org/2000/svg" xmlns:xlink="http://www.w3.org/1999/xlink">
    <title>logo</title>
    <g id="Page-1" stroke="none" stroke-width="1" fill="none" fill-rule="evenodd">
        <g id="logo" fill-rule="nonzero">
            <circle id="Oval" fill="#FFFFFF" cx="100" cy="100" r="100"></circle>
            <path d="M85.0225188,83.2210175 L85.0225188,92.5988324 C85.0225188,106.467056 79.6597164,113.461218 68.9824854,113.461218 C64.0075308,113.483028 59.0679363,112.624655 54.3919933,110.925771 L54.3919933,161.084237 C61.0942452,162.919099 68.5020851,163.873228 76.7005838,163.873228 C95.5746455,163.873228 110.77231,157.843203 122.166806,145.903253 C133.561301,133.963303 138.790659,117.201001 138.790659,95.6130108 L138.790659,83.2210175 L85.0225188,83.2210175 Z" id="Path" fill="#000000"></path>
            <path d="M82.2502085,59.2160133 C79.6680567,56.6405338 78.3986656,53.4478732 78.3986656,49.6930776 C78.3986656,45.8915763 79.6663887,42.6989158 82.2485405,40.0700584 C84.8306922,37.441201 87.9983319,36.1267723 91.7781485,36.1267723 C95.557965,36.1267723 98.7723103,37.441201 101.352794,40.0700584 C103.933278,42.6989158 105.272727,45.8915763 105.272727,49.6930776 C105.272727,53.4478732 103.958299,56.6405338 101.352794,59.2226856 C98.7472894,61.8048374 95.5796497,63.0708924 91.7781485,63.0708924 C87.9766472,63.0708924 84.8323603,61.8048374 82.2502085,59.2160133 Z" id="Path" fill="#000000"></path>
            <path d="M122.58382,59.2160133 C120.001668,56.6338616 118.733945,53.441201 118.733945,49.6864053 C118.733945,45.8849041 120.001668,42.6922435 122.58382,40.0633862 C125.165972,37.4345288 128.333611,36.1201001 132.11176,36.1201001 C135.889908,36.1201001 139.105922,37.4345288 141.688073,40.0633862 C144.270225,42.6922435 145.608007,45.8849041 145.608007,49.6864053 C145.608007,53.441201 144.293578,56.6338616 141.688073,59.2160133 C139.082569,61.7981651 135.914929,63.0708924 132.110092,63.0708924 C128.305254,63.0708924 125.164304,61.8048374 122.58382,59.2160133 Z" id="Path" fill="#000000"></path>
        </g>
    </g>
</svg>