<svg width="942" height="135" viewBox="0 0 942 135" fill="none" xmlns="http://www.w3.org/2000/svg">
<path d="M54 1.3L48.5 2.5L48.2 22.2L48 42H56C61.2 42 63.9 42.4 63.5 43C63.2 43.5 59.5 44 55.4 44H48L48.2 88.2L48.5 132.5L54.5 133.8C63.6 135.7 78.8 134.7 87.8 131.7C112.5 123.2 130 101.7 133.3 76C137.3 44 118.4 13.9 87.8 3.3C79.1 0.299996 62.8 -0.700004 54 1.3Z" fill="#1A2371"/>
<path d="M37.9 6.7L32.5 9.5L32.2 25.7L32 42H39H46V23C46 7.9 45.7 4 44.7 4C44 4 40.9 5.2 37.9 6.7Z" fill="#1A2371"/>
<path d="M20.2 19.7C11.8 28.1 5.80002 38.3 2.40002 49.5C-0.0999756 57.8 -0.0999756 77.2 2.40002 85.5C5.80002 96.7 11.8 106.9 20.2 115.2C24.4 119.5 28.4 123 28.9 123C29.7 123 30 105.9 30 67.5C30 29.1 29.7 12 28.9 12C28.4 12 24.4 15.5 20.2 19.7Z" fill="#1A2371"/>
<path d="M166.7 38.6C166.3 39 166 52.1 166 67.6C166 94.6 166.1 96 167.9 97C169 97.6 176.7 98 185.9 98C199.1 98 202.1 97.7 203.4 96.4C205.3 94.5 205.4 92.6 203.7 91.2C202.9 90.5 196.5 89.9 187.9 89.8L173.5 89.5L173 64L172.5 38.5L170 38.2C168.6 38 167.1 38.2 166.7 38.6Z" fill="#1A2371"/>
<path d="M327.3 39.5999C325.9 43.2999 328.3 44.4999 337.9 44.7999L347 45.0999V70.4999C347 94.5999 347.1 95.9999 348.9 96.9999C351.4 98.2999 351.6 98.2999 353.4 96.3999C354.8 95.0999 355 91.2999 355 69.9999V45.0999L364.1 44.7999C371.4 44.5999 373.5 44.1999 374.3 42.7999C375.1 41.5999 375 40.6999 374.1 39.5999C372.9 38.1999 369.6 37.9999 350.3 37.9999C330.5 37.9999 327.9 38.1999 327.3 39.5999Z" fill="#1A2371"/>
<path d="M452.7 38.6C452.3 39 452 52 452 67.5C452 90.8 452.3 96 453.4 96.9C454.5 97.8 455.4 97.9 456.9 97C458.9 96 459 95 459 83.2C459 68.7 459.8 66.4 465.3 63.6C470.1 61.3 474.9 62.1 479.3 66L482.5 68.8L483 82.6C483.4 93.9 483.8 96.5 485.2 97.3C486.4 98.1 487.3 98 488.4 97.1C490.5 95.3 490.7 70.7 488.6 65.7C484.6 56 470.9 52.4 461.4 58.6L459.1 60.2L458.8 49.3C458.5 38.6 458.5 38.5 456 38.2C454.6 38 453.1 38.2 452.7 38.6Z" fill="#1A2371"/>
<path d="M594.7 38.6C594.3 39 594 50.3 594 63.7C594 82.6 594.3 88.7 595.4 90.8C598.2 96.2 603.1 98.7 607.7 96.9C609.6 96.2 610.1 95.4 609.8 93.2C609.6 91.1 608.9 90.4 606.8 90.2C601.8 89.6 601.5 88.5 601 62.6L600.5 38.5L598 38.2C596.6 38 595.1 38.2 594.7 38.6Z" fill="#1A2371"/>
<path d="M825.2 39.2C823.5 40.9 823.6 85.1 825.3 89.9C827.5 96.2 834.9 99.6 839.1 96.1C841 94.5 841.3 93.8 840.4 92.3C839.8 91.3 838.2 90.3 836.9 90.2C832.1 89.5 832 89.2 832 64.8C832 50.9 831.6 41.1 831 39.9C829.8 37.8 827 37.4 825.2 39.2Z" fill="#1A2371"/>
<path d="M211.2 40.2C209.2 42.2 209.8 46.8 212.1 48.1C215.4 49.8 219 47.8 219 44.2C219 40.9 217.4 39 214.5 39C213.3 39 211.9 39.5 211.2 40.2Z" fill="#1A2371"/>
<path d="M708.2 40.2C707.5 40.9 707 42.6 707 44.2C707 49.2 713.6 50.4 716.1 45.9C718.4 41.6 711.7 36.7 708.2 40.2Z" fill="#1A2371"/>
<path d="M32.2 84.7L32.5 125.5L36.5 127.7C38.7 128.9 41.7 130.2 43.3 130.5L46 131.2V87.6V44H39H32L32.2 84.7Z" fill="#1A2371"/>
<path d="M239.1 55.9999C231.8 57.6999 228 61.6999 228 67.5999C228 71.2999 233.6 76.4999 239 77.9999C249.3 80.7999 252 82.0999 252.7 84.7999C254.2 90.8999 242.8 93.3999 235.6 88.4999C231.3 85.5999 228.5 85.2999 227.1 87.6999C223.8 93.6999 239.7 99.9999 250.5 96.9999C256.7 95.2999 260 91.1999 260 85.2999C260 79.4999 256.3 75.6999 248.8 73.9999C238.9 71.5999 236 70.0999 236 67.0999C236 65.0999 236.7 63.9999 238.5 63.1999C242.5 61.3999 246 61.7999 251.8 64.6999C256.7 67.1999 257.2 67.1999 258.7 65.6999C260.2 64.2999 260.2 63.8999 258.7 61.6999C255.8 57.1999 246.1 54.3999 239.1 55.9999Z" fill="#1A2371"/>
<path d="M280.5 56.1C275.4 57.3 271 60.4 267.9 64.8C264.5 69.8 263.9 81 266.8 86.6C270.4 93.5 277.2 98 284.2 98C287.7 98 295.3 94.9 296.4 93.1C297.5 91.3 298.8 91.8 299.2 94.1C299.6 97.2 302.4 98.7 304.4 97.1C306.9 95 306.6 73 304.1 67.4C301.8 62.4 295.7 57.2 291 56.4C289.1 56.1 286.8 55.7 286 55.5C285.2 55.4 282.7 55.6 280.5 56.1ZM293 64.8C304 72.8 298.4 91 285 91C274.8 91 268.4 77.7 274.3 68.9C278.7 62.2 287 60.4 293 64.8Z" fill="#1A2371"/>
<path d="M382 56C376.4 57 372.2 59.7 369.2 64.2C366.8 67.9 366.5 69.3 366.5 76.5C366.5 83.7 366.8 85.1 369.3 88.8C373.1 94.7 378.8 97.4 387 97.4C395.2 97.4 402.3 94.2 401.8 90.7C401.4 87.8 398.6 87.4 393.9 89.5C391.2 90.8 388.6 91.1 384.9 90.8C380.4 90.3 379.1 89.7 376.3 86.6C374.5 84.7 373 82.1 373 81C373 79.2 373.8 79 388.8 78.8L404.5 78.5L404.8 75.8C405.6 69.3 400.9 60.5 395.1 57.6C391.6 55.8 386.3 55.2 382 56ZM391.9 63.5C394.3 64.7 398 70.2 398 72.4C398 72.7 392.4 73 385.5 73C375.4 73 373 72.7 373 71.6C373 69.6 377.9 64 380.4 63C383.7 61.6 388.8 61.9 391.9 63.5Z" fill="#1A2371"/>
<path d="M424 56C419.7 56.8 415.1 59.1 412.8 61.7C407.7 67.3 406.3 79.7 409.9 86.9C414.9 96.6 427.3 100.7 437 95.7C442.6 92.9 444.2 90.4 441.6 88.5C440 87.3 439.2 87.3 435.9 89C425.4 94.4 415 88.1 415 76.3C415 64.3 426.5 58.5 436.5 65.3C440.4 68 442.4 67.9 443.5 65.3C444.1 63.5 440.8 59.5 437 57.5C433.6 55.8 428.2 55.2 424 56Z" fill="#1A2371"/>
<path d="M515.1 56.2C513.3 56.7 510.7 57.8 509.5 58.6C507.4 59.9 507.2 59.9 506.7 58C506.3 56.3 505.5 55.9 503.3 56.2L500.5 56.5L500.2 76.1C500 93.1 500.2 95.9 501.6 97.1C502.7 98 503.6 98.1 504.8 97.3C506.2 96.5 506.6 93.9 507 82.9C507.6 67.9 508.3 65.6 513.7 63.3C520.2 60.6 527.7 63.5 530.1 69.7C530.6 71 531 77.5 531 84C531 94.8 531.2 96 532.9 97C535.8 98.5 537.9 97.2 538.6 93.3C539.6 87.8 538.4 69.9 536.8 66C534.9 61.5 530.1 57.4 525.2 56C520.9 54.8 519.7 54.8 515.1 56.2Z" fill="#1A2371"/>
<path d="M562.3 56C544.6 58.7 539.7 84 554.8 94.5C558.7 97.2 560 97.5 566.5 97.5C573 97.5 574.3 97.2 578.2 94.5C590.3 86.1 590.1 66.2 577.9 58.9C573 55.9 568.5 55.1 562.3 56ZM573.7 64.5C579.6 68.4 581.6 76.8 578.3 83.7C573.7 93.4 559.3 93.4 554.7 83.7C548.4 70.5 562 56.8 573.7 64.5Z" fill="#1A2371"/>
<path d="M629.5 55.6C629 55.7 626.8 56.1 624.7 56.5C622.4 56.9 619.4 58.5 617 60.6C606.5 70.1 608.2 89 620 95C639.7 105 658.9 85.8 649 66C647 62 644.8 59.9 640.5 57.8C637.5 56.3 631.3 55 629.5 55.6ZM636.6 63.6C646.4 68.3 646.6 84.5 636.9 89.6C627 94.7 615.6 85.5 617.5 74C619.1 64.6 628.2 59.6 636.6 63.6Z" fill="#1A2371"/>
<path d="M674 55.8999C663.6 57.9999 657.8 65.2999 657.7 76.4999C657.5 94.4999 675.7 104.5 688.1 93.2999L692 89.7999V92.8999C692 97.4999 689.7 102.2 686.1 105.3C680.8 109.8 671.7 108.7 666.6 103.1C664.4 100.7 661.8 100.4 660.1 102.4C658.5 104.3 660 107.1 664.3 110.3C671.6 115.8 680 116.4 688.1 112.2C692.4 110 694 108.4 696.2 104.1C698.9 98.9999 699 98.0999 699 85.0999C699 74.0999 698.6 70.6999 697.1 67.4999C694.7 62.1999 689 57.2999 684.3 56.4999C682.2 56.0999 679.8 55.6999 679 55.4999C678.2 55.3999 675.9 55.5999 674 55.8999ZM685.6 64.4999C697 71.9999 691.6 90.9999 678 90.9999C667.9 90.9999 661.8 79.4999 666.6 69.4999C669.9 62.4999 679 60.0999 685.6 64.4999Z" fill="#1A2371"/>
<path d="M742 55.7C736.3 56.6 732.9 58.3 729.6 62C717.1 75.8 726.9 98 745.6 98C749.9 98 757.5 95.3 759.6 92.9C761.3 91.1 761.3 90.8 759.7 89.3C758.2 87.8 757.6 87.7 754.7 88.9C753 89.7 749.2 90.5 746.4 90.7C738.7 91.4 733.6 88.2 731.5 81.3L730.9 79.1L746.7 78.8L762.5 78.5L762.8 74.6C763.5 66.4 757.9 58.1 750.5 56.5C745.5 55.4 744.6 55.3 742 55.7ZM752.6 65.4C754.5 67.3 756 69.7 756 70.9C756 72.9 755.5 73 743.5 73H731L732.3 69.7C734.2 65.2 739.3 62 744.7 62C748.5 62 749.8 62.6 752.6 65.4Z" fill="#1A2371"/>
<path d="M780 55.9C772.5 57.4 769 61.1 769 67.3C769 72.7 773 76.2 781.7 78.5C790.1 80.7 791.7 81.5 793 84C793.9 85.6 793.6 86.5 791.6 88.5C787.6 92.5 781.2 92 773.2 86.9C770.4 85.1 767.5 86.7 767.5 90C767.5 93.9 775.7 97.5 784.5 97.5C792.6 97.4 797.2 95.5 799.5 91C803.6 83 799.2 76.6 787.5 73.5C778.6 71.2 775.8 69.5 776.2 66.7C776.9 61.7 786.9 60.7 792.7 65C798.3 69.1 802.7 64.9 797.8 60.2C793.8 56.6 786.2 54.7 780 55.9Z" fill="#1A2371"/>
<path d="M860.1 56.2C858.3 56.7 855.7 57.8 854.5 58.6C852.4 59.9 852.2 59.9 851.7 58C851.3 56.3 850.5 55.9 848.3 56.2L845.5 56.5L845.2 76.1C845 93.1 845.2 95.9 846.6 97.1C847.7 98 848.6 98.1 849.8 97.3C851.2 96.5 851.6 93.9 852 82.9C852.6 67.9 853.3 65.6 858.7 63.3C865.2 60.6 872.7 63.5 875.1 69.7C875.6 71 876 77.5 876 84C876 94.8 876.2 96 877.9 97C880.8 98.5 882.9 97.2 883.6 93.3C884.6 87.8 883.4 69.9 881.8 66C879.9 61.5 875.1 57.4 870.2 56C865.9 54.8 864.7 54.8 860.1 56.2Z" fill="#1A2371"/>
<path d="M907 55.9999C897.2 57.7999 891.8 64.3999 891.2 74.9999C890.7 83.1999 893.1 89.4999 898.1 93.1999C905.2 98.4999 912.9 99.3999 920 95.6999C925.6 92.8999 927.2 90.3999 924.6 88.4999C923 87.2999 922.2 87.2999 918.9 88.9999C908.4 94.3999 898 88.0999 898 76.2999C898 64.4999 909.6 58.5999 919.5 65.2999C923.4 67.9999 925.4 67.8999 926.5 65.2999C927.1 63.4999 923.8 59.4999 920 57.4999C916.6 55.7999 911.2 55.1999 907 55.9999Z" fill="#1A2371"/>
<path d="M211.7 56.6C211.3 57 211 66 211 76.6C211 94.4 211.1 96 212.9 96.9C214.2 97.6 215.2 97.6 216.4 96.7C217.9 95.6 218 93.2 217.8 76L217.5 56.5L215 56.2C213.6 56 212.1 56.2 211.7 56.6Z" fill="#1A2371"/>
<path d="M708.7 56.6C708.3 57 708 66 708 76.6C708 94.4 708.1 96 709.9 96.9C711.2 97.6 712.2 97.6 713.4 96.7C714.9 95.6 715 93.2 714.8 76L714.5 56.5L712 56.2C710.6 56 709.1 56.2 708.7 56.6Z" fill="#1A2371"/>
<path d="M933.5 89.6C930.9 92.2 931.9 97.3 935.2 98.4C940.7 100.3 944.5 92.9 939.8 89.6C937 87.6 935.5 87.6 933.5 89.6Z" fill="#1A2371"/>
</svg>
