<svg width="800" height="155" viewBox="0 0 800 155" fill="none" xmlns="http://www.w3.org/2000/svg">
<path d="M257.959 98.7323L265.174 87.5751C266.05 86.0422 268.672 85.3909 270.205 86.4801C272.833 88.2091 278.953 90.6411 285.955 90.6411C289.892 90.6411 292.952 88.6701 292.952 85.6099C292.952 81.23 290.768 79.0458 281.143 73.3577C270.194 67.2316 263.428 60.4543 263.428 48.0004C263.428 34.002 271.738 20.6606 296.456 20.6606C308.483 20.6606 317.888 25.0348 321.605 27.8817C322.559 28.6015 323.203 29.6574 323.407 30.8349C323.61 32.0123 323.357 33.223 322.7 34.221L315.266 45.1708C314.953 45.6056 314.557 45.9738 314.1 46.2538C313.643 46.5338 313.135 46.72 312.606 46.8015C312.076 46.8831 311.536 46.8583 311.016 46.7287C310.496 46.5992 310.007 46.3673 309.578 46.0468C307.607 44.9518 301.706 42.7676 294.923 42.7676C290.312 42.7676 287.921 44.4965 287.921 47.793C287.921 51.0894 290.549 53.0431 296.675 56.328C309.797 63.5433 319.64 70.1074 319.64 84.1058C319.64 99.1934 308.045 112.541 285.062 112.541C270.845 112.541 261.878 107.071 258.16 104.011C256.645 102.668 256.864 100.479 257.959 98.7323Z" fill="#0E0EE0"/>
<path d="M340.687 29.0746C340.272 26.3487 341.736 24.6717 344.248 24.6717H360.385C361.086 24.6979 361.757 24.9605 362.29 25.4167C362.822 25.8729 363.185 26.4959 363.318 27.1844L368.978 62.5982H369.185L393.28 24.4642C394.116 23.2079 394.744 22.5797 396.634 22.5797H398.311C398.907 22.5596 399.493 22.7321 399.983 23.0715C400.473 23.411 400.841 23.8994 401.032 24.4642L413.393 62.5982H413.601L429.737 27.1844C430.786 24.8791 432.463 24.6717 434.555 24.6717H449.85C452.576 24.6717 453.412 26.7694 452.155 29.4896L416.534 108.276C416.195 108.982 415.658 109.576 414.99 109.985C414.321 110.394 413.549 110.601 412.765 110.581H411.929C411.333 110.602 410.746 110.429 410.255 110.09C409.764 109.75 409.395 109.262 409.203 108.697L392.231 61.3476H392.024L361.249 108.708C360.897 109.281 360.403 109.755 359.817 110.085C359.23 110.415 358.568 110.59 357.895 110.593H357.06C356.372 110.638 355.692 110.428 355.151 110.003C354.609 109.577 354.244 108.966 354.126 108.287L340.687 29.0746Z" fill="#0E0EE0"/>
<path d="M507.181 22.5796C523.732 22.5796 533.996 32.0079 533.996 44.7845C533.996 66.1596 502.778 73.2827 481.409 73.4902C480.775 82.0828 484.757 88.7852 495.24 88.7852C500.271 88.7852 506.553 86.2725 510.12 83.7599C512.004 82.5035 513.889 82.0828 514.938 83.7599L521.853 93.6031C522.412 94.4389 522.655 95.4458 522.54 96.4443C522.425 97.4428 521.959 98.368 521.225 99.0549C513.022 106.498 502.334 110.609 491.257 110.581C471.145 110.581 457.947 93.4014 457.947 73.2885C457.942 47.0897 477.847 22.5796 507.181 22.5796ZM510.322 47.303C510.322 44.3696 508.016 42.0644 503.198 42.0644C494.813 42.0644 486.855 50.0231 484.549 57.1462C494.606 56.9387 510.322 54.0054 510.322 47.303Z" fill="#0E0EE0"/>
<path d="M593.424 22.5796C609.981 22.5796 620.245 32.0079 620.245 44.7845C620.245 66.1596 589.027 73.2827 567.652 73.4902C567.024 82.0828 571.006 88.7852 581.483 88.7852C586.514 88.7852 592.796 86.2725 596.358 83.7599C598.248 82.5035 600.132 82.0828 601.176 83.7599L608.091 93.6031C608.652 94.4382 608.896 95.4456 608.781 96.4447C608.666 97.4438 608.199 98.3692 607.463 99.0549C599.261 106.5 588.572 110.611 577.495 110.581C557.382 110.581 544.179 93.4014 544.179 73.2884C544.185 47.0897 564.108 22.5796 593.424 22.5796ZM596.571 47.303C596.571 44.3696 594.266 42.0644 589.442 42.0644C581.063 42.0644 573.104 50.0231 570.799 57.1462C580.855 56.9387 596.571 54.0054 596.571 47.303Z" fill="#0E0EE0"/>
<path d="M678.982 22.5796C695.534 22.5796 705.803 32.0079 705.803 44.7845C705.803 66.1596 674.585 73.2827 653.21 73.4902C652.582 82.0828 656.564 88.7852 667.041 88.7852C672.066 88.7852 678.354 86.2725 681.915 83.7599C683.8 82.5035 685.685 82.0828 686.733 83.7599L693.649 93.6031C694.21 94.4382 694.454 95.4456 694.339 96.4447C694.224 97.4438 693.757 98.3692 693.021 99.0549C684.818 106.499 674.13 110.61 663.053 110.581C642.94 110.581 629.737 93.4014 629.737 73.2885C629.743 47.0897 649.648 22.5796 678.982 22.5796ZM682.123 47.303C682.123 44.3696 679.818 42.0644 675 42.0644C666.62 42.0644 658.662 50.0231 656.356 57.1462C666.413 56.9387 682.123 54.0054 682.123 47.303Z" fill="#0E0EE0"/>
<path d="M733.189 150.571C732.774 153.089 731.725 154.553 728.164 154.553H710.143C708.466 154.553 707.209 153.089 707.209 151.199V150.571L725.409 28.6537C725.622 26.3485 727.507 24.6715 729.391 24.6715H737.771C738.465 24.7197 739.125 24.9902 739.653 25.4427C740.181 25.8952 740.55 26.5058 740.704 27.1842L742.381 34.0998C746.784 29.4894 757.256 22.5737 769.202 22.5737C787.644 22.5737 800 39.7533 800 60.287C800 88.5719 780.1 110.569 755.792 110.569C749.718 110.569 743.638 108.264 740.497 105.959L733.189 150.571ZM755.584 87.961C767.11 87.961 775.697 75.3861 775.697 62.3962C775.697 53.1754 770.666 45.2167 762.287 45.2167C753.487 45.2167 747.412 52.3398 745.735 55.4864L743.009 82.7224C743.009 82.7224 746.992 87.961 755.584 87.961Z" fill="#0E0EE0"/>
<path d="M152.513 72.0782C190.301 35.0853 201.066 0 201.066 0C201.066 0 196.104 4.84094 184.872 11.0765C171.905 18.2746 150.594 27.3398 118.914 32.976C55.7284 44.237 0 40.1913 0 40.1913C0 40.1913 57.0539 49.2969 71.7439 73.1443C87.4078 98.5304 68.4013 119.571 68.4013 119.571C68.4013 119.571 87.5864 116.062 111.422 102.824C126.4 94.4089 140.214 84.0728 152.513 72.0782Z" fill="#0E0EE0"/>
<path d="M81.0742 82.7744V82.9473C81.08 82.8493 81.0973 82.7744 81.0742 82.7744Z" fill="#0E0EE0"/>
<path d="M63.4451 118.678C66.7936 114.703 69.3926 110.154 71.1158 105.25C72.9941 100.102 73.6029 94.5764 72.8908 89.1426C65.2821 94.4479 57.1917 99.0266 48.7264 102.818C25.1441 113.301 9.65882 115.226 8.45435 115.053C11.9756 119.012 36.6932 125.663 61.5549 120.782L63.4451 118.678Z" fill="#0E0EE0"/>
</svg>
