<svg viewBox="0 0 32 32" xmlns="http://www.w3.org/2000/svg">
<path d="M11.4595 8.11719L9.16907 14.5658L4.53148 14.5695C3.47385 14.5705 2.7344 13.5165 3.09045 12.5148L4.65034 8.12301L11.4595 8.11719Z" fill="#051E46"/>
<path d="M11.4648 8.12109L15.9782 14.5675L18.2744 8.12109H11.4648Z" fill="#3C508C"/>
<path d="M9.16906 14.5547L13.6825 21.0011L15.9782 14.5547H9.16906Z" fill="#051E46"/>
<path d="M9.16906 14.5675H15.9782L11.4647 8.12109L9.16906 14.5675Z" fill="#1F3670"/>
<path d="M13.7499 1.66992L6.94073 1.67574L11.4595 8.11849L13.7499 1.66992Z" fill="#3C508C"/>
<path d="M6.94076 1.67578L4.65036 8.12435L11.4595 8.11853L6.94076 1.67578Z" fill="#1F3670"/>
<path d="M20.8367 6.45227L23.1271 0.00370292L27.7647 7.9544e-07C28.8224 -0.00105695 29.5618 1.05299 29.2058 2.05468L27.6459 6.44645L20.8367 6.45227Z" fill="#FF8C96"/>
<path d="M16.318 0.00390625L14.0224 6.45036H20.8315L16.318 0.00390625Z" fill="#FFAFB9"/>
<path d="M23.1272 0.00390625H16.318L20.8315 6.45036L23.1272 0.00390625Z" fill="#FFA0AA"/>
<path d="M18.5464 12.9017L25.3555 12.8959L20.8367 6.45312L18.5464 12.9017Z" fill="#FFAFB9"/>
<path d="M20.8368 6.45308L25.3555 12.8958L27.6459 6.44727L20.8368 6.45308Z" fill="#FFA0AA"/>
<path d="M5.51253 31.876H3.91117V29.2989H1.60136V31.8755H0V25.6836H1.60136V28.0741H3.91117V25.6836H5.51253V31.876Z" fill="#051E46"/>
<path d="M16.6835 27.0262H15.357V31.8755H13.7556V27.0262H12.4521V25.6836H16.6835V27.0262Z" fill="#051E46"/>
<path d="M23.2527 27.0262H21.9261V31.8755H20.3248V27.0262H19.0212V25.6836H23.2527V27.0262Z" fill="#051E46"/>
<path d="M32 28.731C32 29.5644 31.7241 30.2956 31.1729 30.9252C30.5441 31.642 29.6929 32.0001 28.6198 32.0001C27.5494 32.0001 26.6998 31.642 26.071 30.9252C25.5192 30.2956 25.2438 29.5644 25.2438 28.731C25.2438 28.3503 25.3181 27.9599 25.4673 27.5594C25.6165 27.1593 25.8159 26.8168 26.0667 26.5319C26.6955 25.8151 27.5467 25.457 28.6203 25.457C29.6934 25.457 30.5446 25.8151 31.1734 26.5319C31.7241 27.1615 32 27.8943 32 28.731ZM30.3543 28.731C30.3543 28.2981 30.2169 27.9239 29.942 27.6083C29.5892 27.2056 29.1486 27.0039 28.6198 27.0039C28.2551 27.0039 27.9247 27.1072 27.629 27.3126C27.3333 27.5185 27.1221 27.7927 26.997 28.1352C26.9254 28.3304 26.8896 28.5288 26.8896 28.7304C26.8896 29.145 27.027 29.5165 27.3018 29.844C27.6424 30.2499 28.0819 30.4526 28.6198 30.4526C29.1577 30.4526 29.5988 30.251 29.942 29.8483C30.2169 29.5273 30.3543 29.1547 30.3543 28.731Z" fill="#051E46"/>
<path d="M9.93593 31.8745H8.45166V27.8301H9.93593V31.8745Z" fill="#051E46"/>
<path d="M9.1938 27.3569C9.74984 27.3569 10.2006 26.9036 10.2006 26.3445C10.2006 25.7853 9.74984 25.332 9.1938 25.332C8.63776 25.332 8.187 25.7853 8.187 26.3445C8.187 26.9036 8.63776 27.3569 9.1938 27.3569Z" fill="#FD8C96"/>
</svg>
