<svg xmlns="http://www.w3.org/2000/svg" width="195px" height="26px" viewBox="0 0 195 26"><g><path fill="#231815" d="M4.518,25.462H0.225c0,0-0.225-0.006-0.225-0.231C0,25.006,0,0.783,0,0.783S-0.015,0.53,0.209,0.53c0.243,0,3.918,0,3.918,0s0.225,0.011,0.326,0.189c0.154,0.27,8.771,14.226,8.771,14.226s0.335,0.346,0.439-0.033V0.847c0,0-0.009-0.317,0.256-0.317c0.29,0,4.401,0,4.401,0s0.245,0.012,0.245,0.317c0,0.306,0,24.271,0,24.271s0,0.344-0.306,0.344c-0.354,0-3.834,0-3.834,0s-0.193-0.009-0.361-0.311c-0.222-0.397-8.638-14.105-8.638-14.105S5.048,10.5,4.903,10.99l0.01,14.08C4.913,25.07,4.901,25.472,4.518,25.462L4.518,25.462z"/><path fill="#231815" d="M25.08,25.462c0,0-0.338-0.047-0.338-0.324c0-0.277,0-24.308,0-24.308s0-0.307,0.339-0.3c0.277,0.005,15.61,0,15.61,0s0.416,0.018,0.193,0.437c-0.197,0.371-2.182,3.737-2.182,3.737s-0.145,0.193-0.374,0.193c-0.229,0-8.475,0-8.475,0s-0.241,0.024-0.241,0.277c0,0.253,0,5.304,0,5.304s0.012,0.205,0.241,0.205c0.229,0,8.511,0.012,8.511,0.012s0.241,0.06,0.241,0.362c0,0.301-0.012,3.737-0.012,3.737s-0.024,0.241-0.289,0.241c-0.265,0-8.45,0-8.45,0s-0.229,0.036-0.229,0.265c0,0.229,0,5.546,0,5.546s0.024,0.205,0.35,0.205c0.325,0,10.783,0,10.783,0s0.307,0.06,0.09,0.482c-0.217,0.422-2.182,3.689-2.182,3.689s-0.14,0.24-0.32,0.24C38.141,25.462,25.08,25.462,25.08,25.462z"/><path fill="#231815" d="M49.222,25.462h-4.794c0,0-0.531-0.048-0.274-0.466c0.257-0.418,7.249-11.943,7.249-11.943s0.289-0.273,0-0.771C51.113,11.784,44.7,1.095,44.7,1.095S44.382,0.53,44.876,0.53c0.386,0,4.845,0,4.845,0s0.202-0.016,0.396,0.34c0.236,0.437,3.874,7.233,3.874,7.233s0.273,0.418,0.514,0c0.241-0.418,3.922-7.185,3.922-7.185s0.197-0.388,0.431-0.388c0.193,0,4.762,0,4.762,0s0.485,0.041,0.015,0.806c-0.456,0.743-6.542,10.93-6.542,10.93s-0.209,0.394-0.016,0.712c0.193,0.317,7.217,11.874,7.217,11.874s0.359,0.611-0.193,0.61c-0.348-0.001-4.802,0-4.802,0s-0.261-0.015-0.438-0.321c-0.177-0.305-4.356-7.94-4.356-7.94s-0.289-0.354-0.483,0c-0.193,0.353-4.404,7.956-4.404,7.956S49.472,25.435,49.222,25.462z"/><path fill="#231815" d="M67.793,0.53h17.922c0,0,0.53,0.044,0.181,0.643c-0.32,0.551-2.073,3.472-2.073,3.472s-0.096,0.265-0.362,0.289c-0.265,0.024-4.388,0-4.388,0S78.784,4.91,78.784,5.2c0,0.289,0,19.891,0,19.891s0.024,0.372-0.289,0.373c-0.314,0-4.267,0-4.267,0s-0.31,0.016-0.313-0.228c-0.004-0.314,0-20.036,0-20.036s0.048-0.265-0.241-0.265c-0.289,0-6.003,0-6.003,0s-0.265-0.024-0.265-0.217c0-0.193,0-3.906,0-3.906S67.415,0.53,67.793,0.53z"/><path fill="#231815" d="M103.232,6.079l1.905-3.183c0,0,0.144-0.249,0-0.362c-0.145-0.113-3.938-3.52-9.901-1.688c-5.963,1.832-5.706,10.11-3.183,11.975c2.523,1.864,3.31,2.009,5.73,2.282c2.419,0.273,4.301,0.575,4.332,2.631v0.712c0,0-0.08,2.845-3.456,2.845c-1.382,0-1.382,0-1.382,0s-1.696,0.065-3.102-0.949c-1.517-1.094-2.716-2.572-2.716-2.572s-0.225-0.241-0.386,0.032c-0.161,0.273-2.009,3.327-2.009,3.327s-0.183,0.251,0.08,0.466c0.335,0.274,2.62,2.331,2.62,2.331s2.437,1.752,5.325,1.72c2.889-0.032,6.618-0.225,8.627-3.938c2.009-3.713,0.241-7.571-0.531-8.439c-0.772-0.868-1.848-2.058-5.417-2.475c-3.568-0.418-4.827-0.787-5.047-3.006c0,0-0.129-3.038,3.247-3.15c3.375-0.113,4.404,1.061,4.693,1.286C102.95,6.152,103.095,6.308,103.232,6.079z"/><path fill="#231815" d="M124.376,7.743l2.411-3.954c0,0,0.234-0.319,0-0.555c-0.35-0.352-3.448-4.147-9.716-2.459c-6.269,1.688-6.245,8.149-6.245,8.68c0,0.53,0,6.775,0,6.775s-0.217,6.847,5.859,8.897c6.076,2.049,10.053-2.05,10.656-3.014c0.603-0.964,0.796-1.374,0.796-1.374s0.235-0.412,0-0.554c-0.286-0.174-3.592-2.194-3.592-2.194s-0.354-0.206-0.482,0.145c-0.12,0.33-1.109,3.158-3.858,3.158c-2.749,0-4.509-1.808-4.509-4.798c0-2.99-0.024-6.751-0.024-6.751s0.048-4.629,3.472-4.967c3.424-0.338,4.364,1.736,4.822,2.845C123.966,7.622,124.141,8.045,124.376,7.743z"/><path fill="#231815" d="M134.985,25.462h-4.436c0,0-0.387,0.026-0.194-0.552c0.193-0.579,8.728-23.99,8.728-23.99s0.14-0.389,0.37-0.389c0.289,0,3.322,0,3.322,0s0.181-0.017,0.334,0.414c0.17,0.481,8.8,24.014,8.8,24.014s0.187,0.504-0.241,0.504c-0.289,0-4.46,0-4.46,0s-0.203,0-0.338-0.384c-0.108-0.309-1.254-3.761-1.254-3.761s-0.075-0.315-0.265-0.315c-0.217,0-7.739,0.001-7.739,0.001s-0.367-0.044-0.121-0.482c0.227-0.404,1.905-3.303,1.905-3.303s0.152-0.294,0.386-0.289c0.168,0.003,4.123,0,4.123,0s0.335,0.039,0.193-0.434c-0.165-0.549-2.628-7.788-2.628-7.788s-0.314-0.458-0.506,0c-0.193,0.458-5.618,16.443-5.618,16.443S135.266,25.462,134.985,25.462z"/><path fill="#231815" d="M156.387,0.53c0,0-0.264,0.054-0.263,0.334c0.001,0.265-0.024,24.183-0.024,24.183s-0.013,0.357,0.268,0.357c0.26,0,4.361,0,4.361,0s0.23,0,0.241-0.381c0.012-0.41,0-19.891,0-19.891s-0.072-0.265,0.338-0.265c0.41,0,4.726,0,4.726,0s3.038,0.265,3.038,3.424c0,3.158-2.893,3.327-3.207,3.327c-0.313,0-1.62,0.002-1.62,0.002s-0.252-0.01-0.38,0.247c-0.129,0.257-2.17,3.681-2.17,3.681s-0.161,0.466,0.273,0.466c0.434,0,5.658,0,5.658,0s1.881-0.08,3.327-1.318c1.446-1.238,2.99-3.424,3.006-6.237V8.137c0,0,0.061-7.177-7.638-7.607H156.387z"/><path fill="#231815" d="M178.982,0.53c0,0-0.23,0.044-0.23,0.382c0,0.337,0,24.239,0,24.239s0.049,0.306,0.29,0.311c0.241,0.005,13.372,0,13.372,0s0.134,0,0.289-0.231c0.207-0.307,2.234-3.729,2.234-3.729s0.241-0.417-0.225-0.418c-0.337-0.001-10.801,0.016-10.801,0.016s-0.278,0.025-0.273-0.305c0.005-0.369-0.016-5.465-0.016-5.465s-0.001-0.266,0.321-0.257c0.289,0.008,8.423,0,8.423,0s0.233-0.021,0.241-0.338v-3.681c0,0,0.017-0.316-0.273-0.322l-8.455-0.016c0,0-0.273,0-0.273-0.273c0-0.273,0-5.24,0-5.24s0.048-0.273,0.289-0.273c0.241,0,8.519,0,8.519,0s0.216,0.02,0.338-0.209c0.186-0.351,2.105-3.6,2.105-3.6s0.331-0.583-0.185-0.591C194.51,0.528,178.982,0.53,178.982,0.53z"/></g></svg>